<?xml version="1.0" encoding="UTF-8"?>
<svg id="_레이어_1" data-name="레이어 1" xmlns="http://www.w3.org/2000/svg" viewBox="0 0 64 49.82">
  <defs>
    <style>
      .cls-1 {
        fill: none;
      }
    </style>
  </defs>
  <path d="M64,1.73v.58c-.16.92-.55,1.8-1.25,2.46-.75.7-2.37,1.46-3.33,1.92-.36.17-.69.33-1.02.55-.63.42-1.23.84-1.82,1.32-1.06.89-1.97,2.34-2.62,3.55-.49.91-.93,1.81-1.34,2.76l-1.42,3.25c-.3.68-.78,1.24-1.28,1.79-.82.9-1.76,1.63-2.77,2.31-.18.12-.23.32-.11.51.4.58.73.75,1.09,1.5.28.59.5,1.17.7,1.8.9,2.93,1.18,6.23,1.08,9.28-.02.56.1,1.07.38,1.54l.67,1.15c.21.36.53.63.87.86l.81.54c.54.36.85.94.83,1.61-.04,1.07.22,2.05.81,2.94.19.29.38.58.54.89.2.37.18.76,0,1.12-.23.44-.32.93-.33,1.43,0,.63.02,1.24.06,1.87.02.28-.16.51-.42.54-.02,0-.07.04-.07.04h-.35s-.05-.02-.06-.02l-.29-.04c-.89-.12-1.64-.62-2.15-1.36-1.14-1.66-1.13-4.17-1.04-6.12,0-.19-.06-.4-.15-.56l-2.78-2.18c-1.75-1.77-3.34-3.61-4.66-5.73-.68-1.09-1.22-2.21-1.67-3.41-.52-1.36-1.28-3.1-2.28-4.16-1.23-1.3-3.18-2.36-5-2.39-1.35-.02-2.66-.08-4-.26-3.4-.45-6.37-1.53-8.96-3.8-.63-.55-1.2-1.11-1.79-1.7-.49-.5-.97-.96-1.49-1.42-.2-.17-.4-.3-.65-.38-.09-.03-.21.04-.27.1-.21.21-.4.4-.62.6-.68.61-1.49,1-2.39,1.13-1.76.26-3.41-.18-5.03-.84-.64-.26-1.23-.54-1.85-.83l-1.48-.67c-.26-.12-.54-.19-.82-.23-.46-.06-.61.47-.67.82-.09.51-.12,1.08-.73,1.22-1.27.28-2.63-.77-2.87-2v-.38c.13-.75.46-1.41,1.09-1.88.42-.31.86-.53,1.37-.68.86-.27,1.74-.42,2.66-.43.82,0,1.59.14,2.37.33.4.1.75-.09.91-.47.13-.33.14-.68.1-1.04-.1-.82-.78-.99-1.41-1.19-.38-.12-.75-.16-1.15-.06l-.91.24c-.18.05-.4.08-.58.04-.44-.09-.78-.35-1.06-.69-.76-.93-1.13-.93-1.88-1.54-.39-.32-.57-.83-.4-1.32.06-.19.21-.36.37-.49l.58-.45c.29-.23.48-.53.54-.9l.11-.66c.08-.49.69-.79,1.09-.98s.74-.46,1-.84.46-.75.66-1.15c.13-.25.25-.49.42-.7.11-.14.3-.15.43-.03.42.38.58.75,1,1.14.13.12.3.13.43,0,.19-.18.36-.38.53-.59.22-.26.62-.76,1-.67.12.13.22.25.31.4.33.53.61,1.06.91,1.64,4.87.26,10.36,3.86,14.15,6.8,1.44,1.12,2.8,2.3,4.18,3.49l1.38,1.19c3.54,3.05,8.83,6.64,13.74,6.1,1.56-.17,3.09-1.13,4.22-2.18,1.24-1.14,2.21-2.5,2.94-4.01.39-.82.72-1.64,1.07-2.48.89-2.2,1.75-4.22,3.14-6.17s3.13-3.45,5.22-4.5c.79-.4,1.77-.69,2.58-.23.55.32.82.86.93,1.46Z"/>
  <g>
    <path class="cls-1" d="M53.73,49.82H0V15.61c.24,1.23,1.59,2.28,2.87,2,.61-.14.64-.7.73-1.22.06-.35.2-.88.67-.82.28.04.56.11.82.23l1.48.67c.63.28,1.22.57,1.85.83,1.62.66,3.27,1.1,5.03.84.91-.14,1.71-.52,2.39-1.13.22-.2.41-.39.62-.6.06-.06.18-.13.27-.1.26.08.46.21.65.38.52.46,1,.92,1.49,1.42.58.59,1.16,1.15,1.79,1.7,2.6,2.27,5.57,3.35,8.96,3.8,1.34.18,2.65.24,4,.26,1.82.02,3.77,1.09,5,2.39,1,1.06,1.76,2.79,2.28,4.16.46,1.2,1,2.32,1.67,3.41,1.32,2.12,2.92,3.96,4.66,5.73l2.78,2.18c.09.16.16.37.15.56-.09,1.95-.1,4.46,1.04,6.12.51.74,1.26,1.24,2.15,1.36l.29.04s.06.02.06.02Z"/>
    <path class="cls-1" d="M0,15.22V0h64v1.73c-.11-.6-.38-1.15-.93-1.46-.81-.46-1.79-.17-2.58.23-2.09,1.05-3.85,2.6-5.22,4.5s-2.25,3.97-3.14,6.17c-.34.84-.67,1.66-1.07,2.48-.72,1.52-1.7,2.88-2.94,4.01-1.14,1.04-2.66,2-4.22,2.18-4.9.54-10.19-3.05-13.74-6.1l-1.38-1.19c-1.38-1.19-2.74-2.37-4.18-3.49-3.79-2.94-9.28-6.54-14.15-6.8-.3-.57-.58-1.11-.91-1.64-.09-.15-.19-.27-.31-.4-.37-.08-.78.41-1,.67-.17.21-.34.41-.53.59-.13.12-.3.12-.43,0-.42-.39-.58-.76-1-1.14-.13-.12-.32-.11-.43.03-.17.22-.29.45-.42.7-.2.4-.41.78-.66,1.15s-.59.65-1,.84-1,.49-1.09.98l-.11.66c-.06.36-.25.67-.54.9l-.58.45c-.16.12-.31.29-.37.49-.16.49.01,1,.4,1.32.75.62,1.12.62,1.88,1.54.28.34.62.6,1.06.69.18.04.4,0,.58-.04l.91-.24c.39-.1.77-.06,1.15.06.63.21,1.31.38,1.41,1.19.04.36.03.71-.1,1.04-.15.38-.5.56-.91.47-.78-.18-1.55-.34-2.37-.33-.91,0-1.79.16-2.66.43-.5.16-.95.38-1.37.68-.63.47-.97,1.13-1.09,1.88Z"/>
    <path class="cls-1" d="M64,2.3v47.52h-9.92s.05-.04.07-.04c.26-.03.43-.26.42-.54-.03-.63-.06-1.24-.06-1.87,0-.5.1-.99.33-1.43.19-.36.2-.75,0-1.12-.16-.3-.35-.6-.54-.89-.6-.89-.85-1.88-.81-2.94.02-.67-.29-1.25-.83-1.61l-.81-.54c-.34-.23-.66-.5-.87-.86l-.67-1.15c-.28-.47-.4-.98-.38-1.54.09-3.05-.18-6.36-1.08-9.28-.19-.63-.41-1.21-.7-1.8-.36-.75-.69-.92-1.09-1.5-.13-.18-.08-.38.11-.51,1-.67,1.95-1.4,2.77-2.31.5-.55.98-1.11,1.28-1.79l1.42-3.25c.41-.95.85-1.85,1.34-2.76.66-1.21,1.56-2.67,2.62-3.55.58-.49,1.18-.91,1.82-1.32.33-.22.66-.38,1.02-.55.96-.46,2.58-1.22,3.33-1.92.7-.66,1.09-1.54,1.25-2.46Z"/>
  </g>
</svg>